<?xml version="1.0" standalone="no"?>
<!DOCTYPE svg PUBLIC "-//W3C//DTD SVG 20010904//EN"
 "http://www.w3.org/TR/2001/REC-SVG-20010904/DTD/svg10.dtd">
<svg version="1.0" xmlns="http://www.w3.org/2000/svg"
 width="200.000000pt" height="196.000000pt" viewBox="0 0 200.000000 196.000000"
 preserveAspectRatio="xMidYMid meet">

<g transform="translate(0.000000,196.000000) scale(0.100000,-0.100000)"
fill="#000000" stroke="none">
<path d="M203 1953 c9 -2 23 -2 30 0 6 3 -1 5 -18 5 -16 0 -22 -2 -12 -5z"/>
<path d="M647 1941 c-4 -17 -3 -21 5 -13 5 5 8 16 6 23 -3 8 -7 3 -11 -10z"/>
<path d="M1149 1943 c-13 -15 -11 -16 16 -9 29 7 29 7 12 -12 -11 -12 -14 -23
-9 -26 13 -8 102 5 102 15 0 4 -16 5 -35 2 -44 -7 -44 2 -2 27 l32 20 -51 0
c-36 0 -56 -5 -65 -17z"/>
<path d="M1372 1845 c-2 -117 12 -166 20 -72 5 67 -2 187 -12 187 -4 0 -8 -52
-8 -115z"/>
<path d="M1738 1953 c6 -2 18 -2 25 0 6 3 1 5 -13 5 -14 0 -19 -2 -12 -5z"/>
<path d="M1897 1941 c-10 -11 -9 -13 3 -9 8 3 23 1 33 -4 12 -6 17 -5 17 7 0
8 5 15 10 15 6 0 10 -2 10 -5 0 -3 -39 -64 -86 -136 -50 -76 -83 -136 -80
-145 3 -9 -2 -17 -12 -21 -9 -3 -27 -18 -40 -32 -13 -14 -21 -20 -17 -13 7 14
-11 17 -20 2 -3 -6 -17 -7 -31 -4 -13 3 -24 2 -24 -2 0 -5 -10 -9 -22 -10 -54
-3 -156 -23 -196 -39 -37 -15 -45 -16 -53 -4 -6 9 -9 0 -9 -29 l0 -43 153 7
c83 4 150 4 147 1 -5 -5 -242 -21 -285 -19 -15 1 -16 -1 -6 -7 7 -5 11 -13 8
-18 -3 -5 -8 -28 -11 -51 -5 -41 -4 -42 27 -43 31 -1 31 -1 7 -9 -19 -6 -9 -8
38 -9 64 -1 68 -4 53 -44 -9 -22 -7 -24 17 -19 24 5 24 6 7 12 -19 7 -19 7 1
14 12 3 54 5 95 4 41 -1 79 1 86 5 7 4 23 5 36 2 19 -5 24 -11 19 -28 -10 -40
-62 -54 -62 -17 0 11 -5 20 -11 20 -6 0 -9 -7 -5 -15 3 -8 -2 -19 -12 -24 -12
-8 2 -10 56 -11 66 0 96 12 55 23 -12 3 -9 5 8 6 14 0 38 12 54 27 27 25 46
26 29 2 -6 -7 -11 -24 -12 -38 -3 -24 0 -25 37 -22 30 3 38 7 34 19 -5 13 -2
13 15 4 11 -6 25 -11 31 -11 7 0 10 123 11 364 l0 364 -46 -2 c-26 0 -51 -7
-57 -15z m40 -647 c-3 -3 -12 -4 -19 -1 -8 3 -5 6 6 6 11 1 17 -2 13 -5z m-7
-24 c0 -5 -7 -10 -15 -10 -8 0 -15 5 -15 10 0 6 7 10 15 10 8 0 15 -4 15 -10z"/>
<path d="M10 1920 c-6 -11 -8 -20 -6 -20 3 0 10 9 16 20 6 11 8 20 6 20 -3 0
-10 -9 -16 -20z"/>
<path d="M268 1879 c13 -17 47 -15 58 2 7 12 -7 11 -26 -1 -9 -6 -20 -5 -30 3
-13 10 -13 10 -2 -4z"/>
<path d="M220 1856 c4 -4 16 -4 26 2 16 9 14 10 -8 9 -15 -1 -23 -6 -18 -11z"/>
<path d="M160 1848 c0 -4 9 -8 20 -8 11 0 20 4 20 9 0 6 -9 9 -20 8 -11 -1
-20 -5 -20 -9z"/>
<path d="M606 1825 c-9 -21 -16 -39 -16 -41 0 -2 -12 -29 -26 -61 -15 -31 -35
-80 -45 -108 -56 -154 -65 -175 -76 -164 -7 7 -9 1 -7 -22 3 -20 -3 -44 -16
-64 -11 -18 -20 -40 -20 -48 0 -9 -20 -56 -44 -105 -25 -49 -55 -113 -66 -143
-12 -30 -48 -106 -80 -169 -32 -63 -63 -130 -69 -147 -5 -18 -25 -49 -44 -68
-30 -31 -35 -33 -50 -20 -15 14 -16 13 -3 -2 13 -14 11 -23 -15 -75 -17 -33
-28 -65 -26 -71 3 -7 10 1 16 16 6 16 22 43 36 61 14 18 25 37 25 43 0 5 9 18
19 27 18 17 19 16 26 -13 8 -37 20 -38 59 -6 25 20 28 26 17 39 -7 8 -21 18
-32 21 -27 9 -19 34 57 185 34 69 71 148 82 175 33 81 92 204 102 210 6 4 10
-3 10 -14 0 -32 15 -32 34 0 9 16 21 29 27 29 5 0 9 5 9 10 0 6 -11 10 -24 10
-35 0 -41 16 -20 61 9 22 20 35 24 29 3 -5 7 7 7 26 1 20 6 46 11 58 6 11 22
53 36 93 14 40 30 80 35 90 16 29 71 187 66 191 -2 2 -11 -13 -19 -33z"/>
<path d="M1188 1853 c-32 -8 -34 -65 -3 -77 19 -7 65 31 65 54 0 10 -7 21 -16
24 -17 6 -19 6 -46 -1z m42 -28 c0 -8 -9 -19 -20 -25 -16 -9 -22 -8 -27 6 -3
9 0 20 8 25 21 13 39 11 39 -6z"/>
<path d="M110 1839 c0 -5 -11 -11 -25 -15 -14 -3 -25 -10 -25 -16 0 -9 18 -6
68 13 27 10 28 15 2 22 -11 3 -20 1 -20 -4z"/>
<path d="M970 1828 c-14 -5 -51 -8 -82 -5 -44 4 -58 2 -58 -8 0 -7 -6 -16 -12
-18 -10 -4 -10 -6 0 -6 19 -1 -16 -51 -36 -51 -12 0 -12 4 4 22 14 16 10 15
-18 -6 -21 -16 -38 -25 -38 -22 0 17 -42 -35 -49 -60 -6 -23 -14 -30 -39 -32
-35 -4 -37 0 -22 29 6 11 7 19 1 19 -11 0 -21 -25 -21 -53 0 -11 -8 -29 -18
-40 -12 -14 -14 -21 -5 -24 9 -3 11 -18 6 -48 -8 -58 2 -92 30 -100 12 -4 36
-18 52 -30 l31 -23 -4 37 c-3 34 -2 35 12 17 9 -11 13 -29 10 -42 -4 -16 0
-24 15 -29 25 -8 26 -14 6 -42 -12 -17 -13 -28 -4 -50 6 -15 10 -30 10 -33 -2
-14 24 -78 40 -99 11 -13 19 -28 19 -33 0 -6 9 -21 20 -35 11 -14 20 -31 20
-37 0 -6 -7 -3 -14 7 -22 28 -41 22 -22 -8 20 -31 20 -36 -1 -28 -12 4 -6 -7
15 -30 17 -21 32 -40 32 -43 0 -15 -66 -69 -81 -66 -9 2 -23 -6 -31 -16 -17
-24 -51 -42 -80 -42 -39 0 -146 -57 -209 -111 -55 -49 -78 -86 -44 -73 10 4
15 0 15 -12 0 -11 3 -30 5 -44 5 -22 4 -22 -4 -5 -8 16 -10 12 -10 -22 -1 -24
-5 -43 -11 -43 -5 0 -10 -8 -10 -19 0 -19 -29 -94 -30 -77 0 5 -9 1 -20 -9
-19 -17 -20 -17 -27 3 -17 45 -53 -13 -136 -213 -57 -138 -72 -167 -82 -157
-5 4 -5 1 -1 -5 6 -10 208 -13 957 -13 l949 0 0 408 0 408 -32 31 c-43 40
-175 109 -227 118 -29 5 -41 12 -41 24 0 9 -7 26 -15 37 -8 10 -15 26 -15 35
0 9 -7 19 -15 23 -12 4 -14 -2 -10 -34 5 -39 4 -40 -25 -40 -21 0 -30 -5 -30
-16 0 -21 -44 -15 -48 7 -2 9 4 32 12 50 14 32 15 33 21 12 4 -13 11 -23 16
-23 5 0 4 12 -2 26 -12 34 -8 38 43 39 23 1 43 5 45 11 2 5 -12 8 -30 8 -17
-1 -84 -2 -147 -3 -75 -1 -110 -5 -100 -11 12 -7 12 -12 -4 -29 -13 -14 -16
-28 -12 -46 6 -24 5 -25 -44 -25 -49 0 -68 -13 -31 -23 10 -2 20 -16 23 -30 4
-18 1 -24 -9 -20 -7 3 -13 -2 -13 -11 0 -24 -24 -9 -42 27 -20 37 -17 81 7
107 11 13 13 19 4 22 -9 3 -9 8 1 24 9 15 10 36 2 84 -8 57 -7 68 9 92 27 37
27 160 1 186 -12 12 -21 41 -25 82 -4 35 -15 82 -26 104 -10 23 -23 53 -29 69
-6 15 -17 27 -24 27 -6 0 -24 12 -39 26 -15 15 -40 28 -54 29 -14 2 -37 10
-50 19 -28 18 -40 19 -75 4z m260 -525 c0 -13 -5 -23 -11 -23 -6 0 -8 9 -4 21
4 12 3 19 -1 16 -5 -3 -10 6 -10 19 -2 23 -1 24 12 7 7 -10 14 -28 14 -40z
m-310 -107 c0 -2 -7 -7 -16 -10 -8 -3 -12 -2 -9 4 6 10 25 14 25 6z m530 -116
c-24 -16 -31 -11 -19 11 8 16 14 18 22 10 9 -9 8 -14 -3 -21z m80 10 c5 8 12
11 16 8 3 -4 0 -14 -8 -22 -12 -11 -18 -12 -27 -3 -9 9 -14 8 -21 -3 -5 -8
-12 -11 -16 -7 -4 3 -1 13 6 22 10 12 16 13 27 3 11 -9 16 -9 23 2z m-90 -44
c0 -3 -4 -8 -10 -11 -5 -3 -10 -1 -10 4 0 6 5 11 10 11 6 0 10 -2 10 -4z
m-532 -176 c22 -11 48 -20 57 -20 8 0 15 -5 15 -12 0 -6 -3 -8 -6 -5 -4 3 -15
2 -26 -4 -33 -18 -20 -69 24 -98 48 -31 42 -39 -9 -12 -74 39 -103 77 -103
133 0 21 1 38 3 38 2 0 22 -9 45 -20z m412 -30 c-6 -11 -13 -20 -16 -20 -2 0
0 9 6 20 6 11 13 20 16 20 2 0 0 -9 -6 -20z m150 -434 c0 -2 -7 -9 -15 -16
-12 -10 -15 -10 -15 4 0 9 7 16 15 16 8 0 15 -2 15 -4z m-130 -20 c0 -11 -19
-15 -25 -6 -3 5 1 10 9 10 9 0 16 -2 16 -4z m150 -6 c0 -5 -4 -10 -10 -10 -5
0 -10 5 -10 10 0 6 5 10 10 10 6 0 10 -4 10 -10z m-590 -50 c0 -5 -4 -10 -10
-10 -5 0 -10 5 -10 10 0 6 5 10 10 10 6 0 10 -4 10 -10z m450 -10 c0 -5 -4
-10 -10 -10 -5 0 -10 5 -10 10 0 6 5 10 10 10 6 0 10 -4 10 -10z m58 -14 c-2
-1 -12 -8 -22 -16 -18 -14 -19 -14 -7 8 7 12 17 20 22 16 6 -3 9 -7 7 -8z
m-461 -32 c-3 -3 -12 -4 -19 -1 -8 3 -5 6 6 6 11 1 17 -2 13 -5z m513 -4 c0
-5 -7 -10 -15 -10 -8 0 -15 5 -15 10 0 6 7 10 15 10 8 0 15 -4 15 -10z m37 4
c-3 -3 -12 -4 -19 -1 -8 3 -5 6 6 6 11 1 17 -2 13 -5z m-507 -18 c0 -3 -4 -8
-10 -11 -5 -3 -10 -1 -10 4 0 6 5 11 10 11 6 0 10 -2 10 -4z m377 -2 c-3 -3
-12 -4 -19 -1 -8 3 -5 6 6 6 11 1 17 -2 13 -5z"/>
<path d="M20 1800 c-8 -5 -12 -11 -10 -14 3 -2 14 2 24 10 22 15 10 19 -14 4z"/>
<path d="M524 1729 c-19 -22 -19 -22 3 -10 24 12 39 31 25 31 -5 0 -17 -10
-28 -21z"/>
<path d="M364 1723 c-10 -15 -13 -16 -28 -4 -9 8 -16 9 -16 3 0 -6 10 -14 22
-18 12 -3 26 -11 32 -16 6 -5 26 -18 44 -29 34 -20 34 -20 17 -47 l-17 -27 24
25 c14 14 33 39 42 55 l18 30 -22 -24 c-18 -21 -24 -23 -38 -13 -9 7 -27 16
-39 21 -31 14 -37 31 -17 46 15 11 16 14 4 15 -8 0 -20 -8 -26 -17z"/>
<path d="M321 1663 c-27 -48 -28 -48 -63 -22 l-33 25 -29 -35 -30 -36 29 27
c28 26 29 27 57 10 15 -9 28 -20 28 -24 0 -5 -14 -36 -31 -70 l-31 -61 -79 79
c-43 43 -79 76 -79 72 0 -6 160 -168 167 -168 1 0 2 3 1 8 -3 11 61 132 71
132 5 0 25 -18 45 -40 41 -45 42 -46 50 -24 4 9 2 12 -5 8 -6 -3 -28 10 -49
31 l-38 37 20 34 c11 19 17 34 14 34 -3 0 -10 -8 -15 -17z"/>
<path d="M540 1555 c-7 -9 -8 -15 -2 -15 5 0 12 7 16 15 3 8 4 15 2 15 -2 0
-9 -7 -16 -15z"/>
<path d="M401 1493 c7 -12 15 -20 18 -17 3 2 -3 12 -13 22 -17 16 -18 16 -5
-5z"/>
<path d="M74 1410 c112 -120 123 -130 88 -85 -36 47 -119 134 -147 155 -11 8
16 -24 59 -70z"/>
<path d="M325 1449 c-4 -6 -5 -12 -2 -15 2 -3 7 2 10 11 7 17 1 20 -8 4z"/>
<path d="M181 1414 c-24 -41 -26 -51 -8 -35 8 6 17 9 20 6 4 -3 5 -2 3 1 -2 3
0 19 4 35 11 38 6 37 -19 -7z"/>
<path d="M255 1420 c10 -11 20 -20 23 -20 3 0 -3 9 -13 20 -10 11 -20 20 -23
20 -3 0 3 -9 13 -20z"/>
<path d="M371 1414 c0 -11 3 -14 6 -6 3 7 2 16 -1 19 -3 4 -6 -2 -5 -13z"/>
<path d="M415 1399 c-4 -6 -5 -12 -2 -15 2 -3 7 2 10 11 7 17 1 20 -8 4z"/>
<path d="M382 1360 c0 -14 2 -19 5 -12 2 6 2 18 0 25 -3 6 -5 1 -5 -13z"/>
<path d="M10 1313 c0 -4 5 -15 10 -23 8 -13 10 -13 10 2 0 9 -4 20 -10 23 -5
3 -10 3 -10 -2z"/>
<path d="M235 1300 c-10 -11 -13 -20 -7 -20 6 0 16 9 22 20 6 11 9 20 7 20 -2
0 -12 -9 -22 -20z"/>
<path d="M665 1311 c-3 -5 -1 -12 5 -16 5 -3 10 1 10 9 0 18 -6 21 -15 7z"/>
<path d="M342 1290 c-7 -12 -8 -20 -2 -20 5 0 10 5 10 11 0 5 4 7 10 4 6 -3 7
1 4 9 -8 20 -7 20 -22 -4z"/>
<path d="M40 1271 c0 -5 5 -13 10 -16 6 -3 10 -2 10 4 0 5 -4 13 -10 16 -5 3
-10 2 -10 -4z"/>
<path d="M680 1276 c0 -2 8 -10 18 -17 15 -13 16 -12 3 4 -13 16 -21 21 -21
13z"/>
<path d="M0 1256 c0 -2 7 -9 15 -16 12 -10 15 -10 15 4 0 9 -7 16 -15 16 -8 0
-15 -2 -15 -4z"/>
<path d="M210 1253 c0 -6 8 -17 18 -24 16 -13 16 -13 2 6 -8 11 -16 22 -17 24
-2 2 -3 0 -3 -6z"/>
<path d="M1610 1245 c0 -12 -13 -15 -60 -15 -41 0 -60 4 -60 13 0 8 -3 9 -8 1
-4 -6 -14 -14 -22 -17 -8 -3 26 -6 77 -6 86 -1 91 0 86 19 -6 24 -13 26 -13 5z"/>
<path d="M1848 1246 c-10 -7 -15 -16 -11 -19 11 -12 21 -7 26 13 3 11 4 20 4
20 -1 0 -10 -7 -19 -14z"/>
<path d="M0 1230 c0 -6 12 -27 26 -46 15 -19 24 -40 20 -49 -3 -10 -2 -13 5
-10 6 4 17 -1 25 -11 13 -17 13 -15 0 12 -12 26 -13 33 -2 45 8 8 17 25 20 39
5 19 2 16 -11 -9 -17 -31 -32 -42 -34 -23 0 4 -5 13 -11 20 -7 8 -7 12 2 12
13 0 5 15 -8 15 -4 0 -13 4 -19 8 -8 5 -13 3 -13 -3z"/>
<path d="M243 1190 c-1 -12 4 -20 13 -20 12 0 12 4 4 20 -6 11 -12 20 -13 20
-2 0 -3 -9 -4 -20z"/>
<path d="M1862 1162 l3 -47 41 -3 42 -3 3 50 c3 37 1 47 -8 40 -8 -7 -24 -7
-48 0 l-36 10 3 -47z"/>
<path d="M1341 1184 c0 -11 3 -14 6 -6 3 7 2 16 -1 19 -3 4 -6 -2 -5 -13z"/>
<path d="M1817 1193 c-13 -13 -7 -21 13 -16 11 3 20 9 20 14 0 10 -24 12 -33
2z"/>
<path d="M0 1170 c0 -5 5 -10 10 -10 6 0 10 5 10 10 0 6 -4 10 -10 10 -5 0
-10 -4 -10 -10z"/>
<path d="M184 1114 c17 -35 56 -59 56 -34 0 6 -5 10 -12 10 -7 0 -23 12 -36
28 l-23 27 15 -31z"/>
<path d="M18 1118 c8 -10 11 -26 7 -40 l-7 -23 17 23 c9 13 15 24 14 25 -2 2
-13 9 -24 17 -18 14 -19 14 -7 -2z"/>
<path d="M1954 1096 c-10 -8 -16 -17 -12 -21 7 -7 48 16 48 27 0 12 -14 9 -36
-6z"/>
<path d="M106 1067 c3 -10 9 -15 12 -12 3 3 0 11 -7 18 -10 9 -11 8 -5 -6z"/>
<path d="M1341 1054 c0 -11 3 -14 6 -6 3 7 2 16 -1 19 -3 4 -6 -2 -5 -13z"/>
<path d="M1606 1035 c-3 -9 0 -15 9 -15 8 0 15 7 15 15 0 8 -4 15 -9 15 -5 0
-11 -7 -15 -15z"/>
<path d="M101 1024 c0 -11 3 -14 6 -6 3 7 2 16 -1 19 -3 4 -6 -2 -5 -13z"/>
<path d="M149 1002 c11 -17 21 -41 21 -54 0 -18 2 -20 9 -9 6 10 5 23 -2 35
-6 12 -11 23 -10 27 1 3 -8 11 -19 18 -20 13 -20 13 1 -17z"/>
<path d="M196 1014 c-4 -9 -4 -19 -1 -22 2 -3 7 3 11 12 4 9 4 19 1 22 -2 3
-7 -3 -11 -12z"/>
<path d="M470 980 c0 -5 5 -10 11 -10 5 0 7 5 4 10 -3 6 -8 10 -11 10 -2 0 -4
-4 -4 -10z"/>
<path d="M130 976 c0 -2 8 -10 18 -17 15 -13 16 -12 3 4 -13 16 -21 21 -21 13z"/>
<path d="M380 969 c0 -5 5 -7 10 -4 6 3 10 8 10 11 0 2 -4 4 -10 4 -5 0 -10
-5 -10 -11z"/>
<path d="M1810 971 c0 -6 5 -13 10 -16 6 -3 10 1 10 9 0 9 -4 16 -10 16 -5 0
-10 -4 -10 -9z"/>
<path d="M137 883 c-4 -3 -7 -16 -6 -27 0 -19 1 -19 10 3 10 24 8 36 -4 24z"/>
<path d="M440 880 c-8 -5 -24 -7 -35 -4 -19 5 -19 5 -1 -10 14 -12 22 -12 37
-3 10 6 19 15 19 19 0 10 -2 10 -20 -2z"/>
<path d="M9 865 c17 -33 31 -51 31 -40 0 6 -10 21 -21 35 -13 17 -17 18 -10 5z"/>
<path d="M0 723 c0 -6 8 -17 18 -24 16 -13 16 -13 2 6 -8 11 -16 22 -17 24 -2
2 -3 0 -3 -6z"/>
<path d="M130 199 c0 -5 5 -7 10 -4 6 3 10 8 10 11 0 2 -4 4 -10 4 -5 0 -10
-5 -10 -11z"/>
<path d="M110 119 c0 -5 5 -7 10 -4 6 3 10 8 10 11 0 2 -4 4 -10 4 -5 0 -10
-5 -10 -11z"/>
</g>
</svg>
